<?xml version="1.0" standalone="no"?>
<!DOCTYPE svg PUBLIC "-//W3C//DTD SVG 20010904//EN"
 "http://www.w3.org/TR/2001/REC-SVG-20010904/DTD/svg10.dtd">
<svg version="1.0" xmlns="http://www.w3.org/2000/svg"
 width="50" height="50" viewBox="0 0 1023.000000 1280.000000"
 preserveAspectRatio="xMidYMid meet">

<g transform="translate(0.000000,1280.000000) scale(0.100000,-0.100000)"
fill="#000000" stroke="none">
<path d="M4360 12785 c-94 -20 -199 -58 -287 -104 l-77 -40 -87 35 c-144 57
-231 76 -354 78 -126 1 -190 -12 -291 -60 -77 -36 -166 -109 -190 -155 -10
-21 -42 -43 -112 -78 -123 -62 -261 -152 -334 -220 l-58 -53 0 -122 c0 -221
-31 -465 -87 -680 -32 -127 -29 -190 14 -244 42 -53 233 -178 410 -269 l152
-78 41 -70 c22 -38 44 -76 49 -84 7 -11 19 -9 67 8 76 27 254 42 364 31 47 -5
95 -9 108 -9 27 -1 29 12 -30 -171 -22 -69 -67 -192 -100 -275 -77 -192 -76
-187 -34 -141 43 47 133 226 175 349 38 110 71 267 71 340 0 31 4 58 9 61 23
15 267 59 446 81 l109 14 121 -97 c118 -95 322 -290 444 -427 l63 -70 -49 64
c-108 144 -333 359 -501 480 l-64 46 39 7 c21 4 54 7 73 8 29 1 32 3 15 10
-51 22 -342 6 -560 -31 -214 -36 -501 -119 -670 -194 -47 -20 -61 -23 -70 -13
-7 7 -58 90 -115 183 -130 213 -266 421 -282 431 -13 8 121 -251 201 -390 28
-49 50 -90 49 -92 -4 -3 -155 89 -166 101 -4 4 3 4 16 1 16 -5 22 -3 22 8 0
26 -250 216 -285 216 -15 0 -1 -25 38 -67 47 -52 38 -49 -46 14 -75 58 -91 90
-84 167 10 106 24 122 23 26 -1 -85 15 -146 27 -104 3 10 11 52 17 92 7 39 15
72 18 72 4 0 20 -24 35 -53 15 -30 41 -69 58 -88 l30 -34 -5 34 c-7 39 -78
210 -109 260 l-21 35 -23 -65 c-13 -35 -21 -52 -18 -37 43 226 48 269 48 458
0 107 -4 216 -10 243 l-11 48 137 85 c75 47 237 135 361 197 167 83 218 113
199 115 -14 2 -60 -8 -102 -21 -42 -14 -77 -23 -77 -21 0 15 78 70 145 104
223 110 426 93 806 -69 210 -89 226 -84 52 17 -45 26 -83 50 -83 53 0 4 156
58 260 88 19 6 74 15 121 21 219 26 425 -53 649 -249 l35 -30 -71 29 c-77 32
-217 60 -298 60 -93 0 -267 -37 -280 -59 -3 -4 91 -7 207 -7 189 1 223 -2 317
-24 58 -13 116 -24 129 -24 17 -1 66 -48 184 -174 140 -151 197 -205 197 -188
0 3 -34 48 -75 100 -41 53 -69 96 -62 96 7 0 120 -54 252 -119 626 -311 1071
-683 1269 -1060 41 -78 43 -105 26 -282 -14 -142 -43 -282 -89 -430 -21 -68
-37 -126 -34 -129 17 -18 107 173 138 293 29 112 31 83 5 -83 -24 -160 -50
-279 -101 -462 l-41 -147 -47 -6 c-53 -7 -152 -23 -196 -32 -27 -6 -26 -3 20
32 88 66 178 166 163 180 -3 3 -51 -28 -106 -69 -171 -125 -548 -356 -581
-356 -5 0 -30 30 -56 66 -73 101 -144 184 -160 184 -20 0 -115 -124 -174 -228
-81 -143 -171 -385 -171 -462 0 -22 -8 -34 -35 -50 -19 -12 -35 -26 -35 -31 0
-5 -4 -9 -10 -9 -5 0 -10 13 -10 29 0 51 -48 185 -88 247 -76 116 -439 502
-504 535 -20 10 -54 19 -75 19 -33 1 -42 6 -65 40 -37 53 -101 98 -169 118
-54 16 -56 18 -68 62 -44 163 -136 199 -374 145 -245 -55 -473 -188 -659 -384
l-86 -89 -5 39 c-11 80 -94 149 -182 149 -122 0 -211 -106 -291 -347 -58 -172
-58 -312 -2 -436 19 -42 20 -50 8 -57 -82 -46 -177 -155 -230 -265 -50 -106
-65 -170 -64 -287 l0 -98 -48 -16 c-46 -15 -49 -15 -81 5 -52 32 -136 126
-160 178 -18 39 -22 66 -22 143 0 107 17 155 95 270 94 138 193 134 221 -11
11 -55 13 -60 22 -38 12 32 2 207 -14 242 -14 32 -55 57 -93 57 -38 0 -172
-95 -266 -190 -245 -244 -311 -537 -183 -808 61 -130 182 -227 333 -268 90
-24 261 -24 365 0 75 17 80 17 90 1 49 -82 150 -192 249 -270 l38 -30 -64
-105 c-71 -118 -130 -197 -312 -420 -154 -188 -246 -324 -330 -490 -162 -318
-252 -630 -302 -1045 -7 -66 -14 -146 -14 -178 0 -46 -4 -59 -17 -63 -10 -3
-60 -22 -110 -41 -131 -49 -133 -52 -133 -225 0 -135 -1 -141 -36 -231 -104
-271 -278 -518 -497 -705 -125 -106 -125 -113 -24 -213 140 -139 303 -250 533
-361 l142 -68 7 -58 c9 -73 37 -154 75 -215 l30 -48 -26 -92 c-59 -203 -139
-345 -282 -497 l-79 -85 -51 101 c-119 236 -318 476 -496 594 -260 173 -583
247 -811 186 -66 -17 -151 -55 -166 -72 -8 -9 3 -7 33 6 82 36 169 53 273 53
162 0 317 -39 478 -119 286 -143 483 -359 658 -719 140 -290 231 -604 285
-980 21 -148 30 -594 15 -755 -13 -142 -32 -292 -37 -287 -2 2 -22 64 -44 138
-95 323 -243 658 -568 1287 -340 657 -581 1062 -712 1193 -71 72 -142 108
-225 116 -68 6 -153 -14 -187 -44 -22 -20 -23 -5 -3 44 25 60 7 50 -22 -13
-25 -54 -28 -69 -27 -169 1 -297 144 -877 314 -1275 276 -649 737 -1254 1251
-1644 l83 -63 70 29 c214 88 464 258 751 509 155 136 923 896 1189 1177 l189
199 61 -14 c92 -22 88 -20 76 -43 -6 -11 -39 -118 -75 -238 -157 -536 -275
-784 -484 -1019 -107 -120 -131 -158 -131 -211 0 -104 63 -157 320 -270 336
-148 694 -244 1100 -294 137 -17 592 -17 730 0 237 29 511 89 623 136 187 78
271 175 253 289 -17 107 -104 253 -218 367 -134 133 -313 235 -650 371 -87 35
-158 66 -157 69 0 3 32 28 71 55 486 342 956 986 1145 1567 26 81 52 148 56
148 5 0 19 -8 32 -18 20 -16 32 -17 72 -10 26 5 113 17 193 27 178 24 184 29
195 147 11 116 -1 544 -20 674 -62 448 -226 928 -423 1245 -28 44 -49 80 -49
81 1 0 56 -3 122 -7 367 -24 748 -89 1093 -186 218 -61 256 -68 302 -54 74 22
100 98 60 176 -23 44 -24 48 -11 41 19 -12 166 -27 203 -21 37 7 39 9 34 34
-13 55 -77 168 -126 223 -96 108 -256 195 -445 243 -50 13 -181 38 -291 55
-109 17 -221 36 -249 43 l-50 11 75 13 c41 8 212 38 380 68 427 77 744 141
820 166 157 51 262 131 373 281 l27 37 72 -25 c86 -29 141 -65 168 -109 23
-36 26 -80 8 -88 -7 -2 -53 -1 -103 3 -113 9 -250 -3 -337 -30 -38 -11 -68
-22 -68 -24 0 -2 89 -3 198 -2 108 0 228 -1 266 -3 65 -4 70 -3 92 23 16 17
24 40 24 63 0 25 7 40 24 54 14 11 30 35 36 54 27 82 -49 185 -188 252 -46 23
-77 43 -74 51 3 9 140 12 613 12 l609 0 0 95 0 95 -1791 0 -1791 0 -102 30
c-222 64 -846 293 -834 305 2 2 38 18 81 35 151 60 326 90 531 90 124 0 137 9
80 56 -92 78 -302 166 -464 195 -94 17 -345 17 -425 0 -54 -11 -198 -53 -234
-68 -7 -3 7 19 30 49 l44 55 140 5 c228 9 388 71 516 198 143 143 171 307 84
486 -73 150 -249 283 -487 368 l-47 17 24 38 c61 92 94 255 76 376 -19 130
-70 195 -153 195 l-36 0 28 73 c54 140 143 334 218 472 83 156 83 155 89 137
13 -37 138 -231 164 -255 36 -33 54 -30 153 26 135 76 330 153 539 210 77 22
87 23 87 8 1 -26 47 56 85 151 70 175 119 405 135 626 l8 127 -3 -175 c-4
-227 -31 -346 -137 -614 -21 -54 -36 -101 -33 -104 10 -10 124 245 159 358 48
154 66 268 66 415 0 195 -38 351 -128 525 -166 321 -520 647 -999 919 -161 91
-476 232 -575 256 -18 5 -62 45 -123 114 -165 186 -323 301 -486 355 -103 35
-257 44 -359 21z m2582 -1986 l-10 -44 0 65 c-1 51 2 60 10 44 6 -14 6 -36 0
-65z m-3192 21 c0 -6 -8 -37 -17 -71 -13 -47 -20 -58 -32 -53 -56 23 -140 44
-179 44 -67 0 -44 14 93 54 136 40 135 40 135 26z m3177 -162 c-3 -8 -6 -5 -6
6 -1 11 2 17 5 13 3 -3 4 -12 1 -19z m-2649 -439 c34 -21 56 -73 133 -304 41
-121 75 -212 77 -203 2 10 -13 83 -32 164 -20 80 -36 147 -36 150 0 7 80 -45
143 -94 l59 -44 -36 -37 c-33 -34 -84 -131 -68 -131 4 0 22 23 40 51 53 81
118 108 180 75 44 -23 360 -365 460 -497 93 -124 122 -236 123 -491 2 -290 19
-356 35 -128 3 58 13 118 21 135 24 47 94 115 120 115 25 0 30 -12 43 -103 l8
-52 1 52 c2 75 -20 122 -56 123 -17 0 -83 -59 -105 -95 l-18 -30 0 77 0 78 42
30 c49 36 115 41 141 12 38 -42 51 -94 51 -207 1 -128 -22 -215 -84 -332 -22
-40 -36 -73 -33 -73 4 0 21 14 38 30 l32 31 47 -21 c57 -24 165 -125 202 -187
35 -61 60 -135 89 -274 14 -66 25 -121 25 -124 0 -3 -17 -13 -37 -24 -59 -29
-148 -44 -220 -36 -55 6 -63 9 -57 23 54 127 58 303 11 407 -34 73 -91 134
-219 231 -85 65 -131 113 -175 180 -11 18 -12 18 -12 -1 -1 -61 58 -134 236
-293 114 -101 145 -164 150 -305 2 -60 -2 -127 -9 -162 -16 -71 -16 -71 -127
-19 -90 42 -146 82 -366 259 -93 75 -236 180 -317 233 -106 70 -145 101 -141
112 27 69 34 125 22 167 -16 59 -67 113 -105 113 -26 0 -31 5 -42 43 -28 93
-117 178 -230 220 -118 44 -306 21 -411 -49 -24 -16 -55 -37 -70 -46 -17 -12
-46 -18 -85 -18 -55 0 -61 -2 -95 -38 -33 -34 -43 -38 -117 -49 -111 -16 -309
-84 -549 -189 -202 -87 -410 -174 -420 -174 -10 0 -5 72 11 148 32 156 102
281 215 386 53 49 104 81 229 146 111 57 179 99 214 132 l51 48 -113 -56 c-62
-31 -115 -54 -117 -52 -7 7 89 209 134 283 110 180 267 355 409 458 243 175
606 291 710 226z m-1099 -316 c38 -29 71 -82 71 -114 0 -17 -21 -61 -54 -111
-73 -114 -121 -211 -161 -331 l-34 -102 -83 -41 c-46 -23 -86 -40 -90 -38 -17
10 -30 126 -26 224 4 86 11 124 41 212 61 181 124 284 192 315 39 17 110 11
144 -14z m1112 -902 c92 -35 194 -142 214 -223 8 -31 25 -38 25 -11 0 28 47
-24 66 -74 12 -32 15 -58 10 -100 -4 -31 -8 -58 -10 -60 -1 -2 -51 22 -110 52
-103 52 -107 55 -81 65 39 15 91 12 105 -5 7 -8 17 -15 22 -15 19 0 -17 33
-51 47 -31 13 -41 12 -138 -18 -91 -27 -116 -31 -186 -27 -102 5 -162 31 -280
121 -106 81 -133 95 -210 111 l-61 13 29 19 c23 15 44 18 100 16 62 -2 76 0
109 23 138 94 307 119 447 66z m-225 -536 c63 -31 142 -109 218 -216 192 -272
346 -442 505 -558 150 -109 353 -199 490 -217 28 -4 51 -9 51 -13 -1 -3 -33
-31 -73 -62 -242 -188 -455 -283 -752 -335 -126 -22 -125 -23 -125 36 0 119
-86 238 -224 311 l-69 36 63 11 c176 31 300 154 300 296 0 23 -5 48 -10 56 -8
12 -10 10 -10 -11 -1 -122 -103 -238 -242 -275 -243 -64 -497 100 -550 357
-14 69 -28 77 -28 16 0 -99 50 -222 122 -296 21 -23 36 -41 33 -41 -18 0 -362
97 -435 122 -210 74 -414 212 -531 359 l-29 37 63 22 c34 13 150 64 257 113
250 115 381 167 543 218 233 74 333 82 433 34z m-915 -763 c52 -27 112 -55
134 -64 l40 -15 -67 5 c-78 5 -173 -11 -235 -40 -24 -11 -42 -22 -40 -24 2 -2
39 3 83 12 137 27 271 6 423 -67 102 -48 182 -104 316 -220 235 -205 283 -246
320 -276 l40 -33 -50 15 c-159 48 -347 96 -358 92 -35 -13 342 -153 665 -247
136 -39 175 -55 210 -83 91 -74 299 -202 434 -268 78 -38 165 -88 195 -110 30
-22 92 -63 138 -91 87 -53 294 -148 323 -148 37 0 23 -17 -39 -50 -81 -42
-196 -152 -244 -235 -75 -129 -102 -226 -102 -365 -1 -125 24 -226 81 -334 35
-67 144 -197 156 -186 3 3 -15 34 -39 70 -25 35 -45 66 -45 70 0 8 279 37 490
51 85 5 251 9 368 7 l213 -3 73 -160 c129 -281 201 -480 264 -730 81 -314 111
-547 119 -896 7 -316 4 -328 -80 -270 -157 107 -380 174 -671 202 -125 11
-495 7 -612 -7 l-51 -6 -27 57 c-93 204 -193 511 -256 792 l-32 142 27 48 c23
40 25 45 7 30 -34 -30 -87 -144 -130 -277 -59 -181 -125 -414 -162 -575 -18
-77 -37 -145 -42 -151 -4 -6 -56 -14 -115 -18 -60 -3 -220 -14 -358 -22 -302
-20 -884 -22 -1080 -5 -961 83 -1790 368 -2192 755 -29 28 -53 58 -53 67 0 9
34 45 76 80 192 164 370 420 459 664 l40 110 7 -114 c7 -122 21 -161 32 -89 7
43 25 376 26 479 l0 55 88 50 c48 27 90 50 93 52 3 1 9 -125 13 -280 4 -156
10 -305 14 -333 l8 -50 7 55 c3 30 8 183 11 340 8 471 58 809 171 1159 108
334 237 573 466 866 156 200 246 331 299 436 27 56 50 107 50 115 0 8 2 14 4
14 2 0 46 -22 97 -48z m581 -196 c192 -52 339 -104 418 -149 71 -40 146 -111
172 -161 30 -58 34 -148 11 -213 l-19 -52 -29 15 c-38 20 -164 128 -322 276
-168 159 -251 227 -355 290 -46 27 -74 48 -63 44 11 -3 95 -26 187 -50z m2119
-550 c181 -88 401 -177 587 -237 l132 -44 0 -77 0 -78 115 0 115 0 -39 -60
c-84 -129 -134 -300 -130 -440 l2 -75 -34 -2 c-69 -3 -135 -15 -192 -34 l-59
-20 -53 36 c-107 71 -408 205 -460 205 -29 0 -136 61 -182 103 -26 23 -59 62
-75 86 -15 25 -28 40 -28 34 0 -6 15 -34 34 -62 19 -28 32 -51 28 -51 -8 0
-271 144 -269 147 2 1 45 -2 97 -7 122 -12 610 -19 616 -9 8 14 -36 115 -86
199 -98 164 -217 283 -352 355 l-61 33 59 35 c33 19 64 36 70 36 6 1 81 -32
165 -73z m3109 -391 c11 -13 7 -26 -20 -78 -57 -111 -156 -251 -221 -313 -123
-117 -191 -143 -581 -224 -378 -79 -860 -185 -921 -204 -43 -13 -53 -12 -107
4 -35 11 -77 33 -102 55 -62 53 -171 103 -265 123 -64 13 -83 20 -83 33 0 9 9
63 20 119 25 123 74 264 127 362 l39 73 190 3 c104 2 261 -2 348 -9 151 -12
158 -13 136 -28 -103 -67 -172 -133 -157 -148 7 -6 87 36 197 102 l91 55 130
0 c72 0 206 5 297 10 92 6 248 11 348 13 l181 2 -34 -35 c-19 -19 -41 -47 -51
-62 -13 -22 -21 -26 -37 -20 -41 15 -130 6 -179 -17 -44 -22 -66 -45 -53 -57
3 -3 48 4 101 15 140 31 137 31 120 -26 -18 -59 -13 -93 5 -38 45 134 162 245
306 291 58 18 159 18 175 -1z m108 -153 c31 -22 78 -62 105 -90 39 -43 47 -57
47 -90 0 -22 -6 -45 -15 -52 -11 -10 -20 -5 -46 25 -42 47 -110 81 -191 95
l-65 12 41 73 c25 45 46 73 54 70 7 -3 38 -22 70 -43z m-3155 -357 c75 -36
197 -92 271 -124 l136 -58 -40 -27 c-22 -14 -40 -28 -40 -31 0 -2 21 5 48 17
143 63 278 81 410 54 176 -36 223 -68 471 -326 214 -223 219 -231 185 -290
-22 -36 -62 -59 -116 -66 -48 -7 -120 15 -267 81 -66 30 -100 39 -155 42 -50
2 -65 0 -51 -6 11 -5 31 -10 45 -10 23 -1 284 -121 276 -128 -1 -2 -68 5 -147
14 -113 14 -225 18 -514 18 -430 0 -499 -7 -917 -82 -23 -4 -29 0 -47 35 -71
139 -87 366 -38 517 50 150 149 285 287 387 36 26 65 48 66 48 1 0 62 -29 137
-65z m1352 -383 c44 -12 175 -40 290 -63 348 -67 501 -129 633 -253 67 -64
147 -181 135 -199 -3 -6 -47 -8 -111 -4 l-104 5 -42 40 c-127 122 -306 226
-474 276 -29 8 -50 11 -47 6 4 -6 11 -10 16 -10 19 0 212 -101 279 -145 158
-105 280 -233 280 -294 0 -34 -10 -48 -43 -60 -33 -13 -27 -14 -267 54 -166
47 -310 81 -484 116 l-60 11 38 13 c51 18 92 59 112 112 29 74 15 97 -161 277
-85 87 -155 162 -155 167 0 4 19 0 43 -10 23 -10 78 -27 122 -39z m-6961
-2358 c101 -35 193 -148 380 -467 221 -378 684 -1271 857 -1654 117 -258 239
-587 239 -645 0 -27 -56 -294 -65 -308 -3 -4 -18 -13 -35 -20 -30 -12 -31 -11
-127 76 -143 131 -332 324 -440 448 -468 544 -804 1188 -972 1867 -91 366
-132 649 -97 678 49 41 177 53 260 25z m5375 -2263 c267 -132 445 -281 531
-442 l30 -57 -122 -61 c-294 -144 -574 -201 -988 -201 -397 0 -755 56 -1122
176 -154 50 -351 124 -346 129 2 2 75 13 163 25 307 41 719 127 1005 210 242
70 540 188 660 261 25 15 47 28 48 28 2 1 66 -30 141 -68z m-2197 -400 c287
-174 741 -329 1128 -385 287 -41 666 -46 890 -11 271 42 504 125 674 239 38
26 70 45 71 44 9 -10 35 -104 35 -126 0 -63 -77 -143 -185 -192 -110 -51 -380
-112 -620 -142 -167 -20 -624 -17 -800 5 -412 53 -800 165 -1152 333 -164 79
-208 148 -148 237 14 20 30 37 34 37 5 0 38 -18 73 -39z"/>
<path d="M3981 10160 c-145 -38 -290 -126 -387 -233 -57 -63 -108 -142 -118
-181 -6 -26 -3 -25 61 30 89 75 161 121 253 159 114 49 172 60 306 60 l121 0
11 65 c7 36 14 77 18 93 l6 27 -98 -1 c-64 0 -125 -7 -173 -19z"/>
<path d="M4713 9707 c-77 -112 -12 -235 190 -358 164 -101 276 -230 294 -341
7 -46 27 -66 47 -48 47 38 46 188 0 286 -36 76 -92 131 -237 233 -127 91 -212
169 -242 225 -11 20 -22 36 -25 36 -3 0 -15 -15 -27 -33z"/>
<path d="M3755 9557 c-61 -20 -93 -45 -123 -96 -24 -41 -27 -56 -27 -138 l0
-91 -25 4 c-38 8 -184 -13 -227 -33 l-38 -17 180 -7 c181 -7 269 -23 457 -83
l47 -15 11 37 c6 20 15 98 22 172 12 151 5 199 -36 247 -23 26 -30 28 -113 30
-52 2 -105 -3 -128 -10z m201 -60 c7 -7 15 -23 19 -35 7 -23 7 -23 -19 -7 -38
25 -131 17 -175 -15 -47 -33 -85 -118 -78 -177 4 -36 2 -43 -10 -39 -8 3 -23
6 -34 6 -17 0 -19 7 -19 63 1 137 54 201 180 218 64 8 120 3 136 -14z m1 -73
c13 -4 23 -16 26 -32 7 -35 3 -37 -25 -18 -39 28 -85 21 -125 -19 -33 -33 -35
-38 -31 -95 1 -33 1 -60 -2 -60 -37 1 -50 15 -50 51 0 114 103 201 207 173z"/>
<path d="M4692 9309 c-46 -9 -75 -40 -108 -112 -26 -56 -29 -73 -30 -172 -1
-93 -4 -110 -18 -113 -36 -7 -12 -21 57 -32 115 -19 194 -38 315 -77 150 -48
163 -35 35 38 l-52 30 31 49 c38 61 51 127 38 187 -13 57 -23 75 -68 125 -57
63 -130 92 -200 77z m123 -88 c104 -70 131 -200 65 -309 -17 -27 -25 -32 -43
-26 -32 10 -32 11 -12 52 9 20 20 66 22 102 4 54 1 73 -19 110 -26 50 -77 90
-117 90 -21 0 -23 2 -11 10 22 14 69 3 115 -29z m-97 -31 c59 -36 74 -73 69
-173 -4 -76 -17 -121 -31 -106 -2 2 3 40 10 84 22 125 4 163 -81 172 -25 3
-45 11 -45 18 0 31 32 33 78 5z"/>
<path d="M5427 8865 c31 -22 44 -78 34 -150 -10 -71 -7 -82 8 -28 23 81 6 171
-34 187 -28 10 -31 7 -8 -9z"/>
<path d="M3036 9779 c-33 -26 -136 -159 -123 -159 3 0 30 32 61 70 32 39 68
77 80 86 34 21 72 8 101 -35 26 -37 33 -36 14 2 -29 56 -87 72 -133 36z"/>
<path d="M2995 9561 c-62 -28 -106 -88 -104 -139 0 -9 7 1 15 23 25 68 76 108
157 125 l42 8 -35 1 c-19 0 -53 -8 -75 -18z"/>
<path d="M3932 8319 c3 -8 44 -28 92 -45 70 -25 98 -42 144 -85 43 -41 57 -50
60 -37 8 40 -51 118 -112 150 -49 25 -191 39 -184 17z"/>
<path d="M3165 7340 c-66 -4 -147 -13 -180 -20 -62 -13 -165 -56 -200 -84 -11
-8 12 0 50 19 102 50 194 64 473 76 136 5 256 11 267 13 38 6 -290 3 -410 -4z"/>
<path d="M3635 7055 c-103 -92 -191 -146 -365 -223 -24 -11 -24 -11 5 -6 92
18 288 138 380 233 51 53 43 52 -20 -4z"/>
<path d="M4241 6593 c42 -80 148 -210 252 -309 319 -304 596 -402 798 -281 51
30 119 105 119 130 0 7 -8 -2 -19 -18 -29 -48 -107 -112 -158 -129 -68 -23
-199 -21 -276 5 -232 77 -525 330 -725 625 -7 10 -3 0 9 -23z"/>
<path d="M2337 5882 c62 -102 167 -190 360 -300 431 -245 1004 -423 1671 -516
332 -47 923 -98 1107 -95 112 2 41 13 -375 59 -647 71 -1030 132 -1380 220
-595 149 -1124 386 -1336 598 -48 48 -62 57 -47 34z"/>
<path d="M2822 5639 c76 -40 360 -149 514 -198 338 -106 618 -166 959 -206
186 -22 556 -35 720 -26 133 7 126 8 -121 9 -556 4 -988 67 -1499 218 -132 40
-422 145 -528 193 -77 35 -101 40 -45 10z"/>
<path d="M5203 5223 c9 -2 23 -2 30 0 6 3 -1 5 -18 5 -16 0 -22 -2 -12 -5z"/>
<path d="M5800 4960 c375 -36 597 -81 839 -169 47 -17 86 -29 88 -27 2 2 -9 8
-24 14 -333 125 -575 177 -866 186 -128 5 -129 5 -37 -4z"/>
<path d="M6666 4385 c44 -126 48 -151 48 -315 1 -185 -14 -263 -92 -490 -54
-158 -56 -162 -28 -104 38 80 94 251 118 360 40 186 23 438 -37 541 -9 15 -13
19 -9 8z"/>
<path d="M6844 4165 c42 -268 30 -510 -38 -745 -14 -46 -23 -86 -21 -88 5 -6
51 142 70 228 26 116 32 412 11 536 -10 54 -20 101 -23 104 -3 3 -3 -13 1 -35z"/>
<path d="M6786 4013 c-13 -211 -61 -403 -146 -575 -22 -46 -34 -74 -25 -63 51
63 133 275 160 417 16 80 33 338 23 338 -3 0 -8 -53 -12 -117z"/>
<path d="M5775 6327 c58 -81 400 -252 683 -341 135 -42 118 -29 -28 23 -265
93 -539 225 -624 301 -35 32 -44 37 -31 17z"/>
<path d="M6981 5583 c-56 -28 -102 -121 -86 -173 10 -32 24 -24 46 27 11 25
35 67 54 93 51 69 47 83 -14 53z"/>
<path d="M7250 5409 c0 -6 4 -19 10 -29 7 -14 3 -27 -21 -60 -41 -57 -57 -41
-29 30 11 29 18 55 15 59 -4 3 -24 -13 -46 -36 -46 -49 -53 -99 -19 -133 41
-41 89 -20 130 59 25 51 25 76 0 101 -22 22 -40 26 -40 9z"/>
<path d="M2994 12371 c-58 -35 -83 -83 -199 -370 -154 -386 -214 -595 -112
-393 52 101 168 371 238 551 56 144 97 196 157 196 26 0 48 -7 61 -19 18 -16
21 -17 21 -3 0 50 -107 74 -166 38z"/>
<path d="M3370 11750 c-25 -25 -34 -61 -26 -104 7 -37 77 -121 319 -383 128
-138 197 -204 197 -188 0 12 -149 200 -300 380 -146 175 -168 209 -156 240 11
31 62 15 182 -56 303 -181 507 -290 439 -234 -79 66 -444 309 -522 349 -45 23
-108 21 -133 -4z"/>
<path d="M4080 11537 c0 -47 244 -201 265 -167 8 13 -80 83 -159 129 -92 52
-106 57 -106 38z"/>
<path d="M3821 11386 c2 -2 45 -20 94 -41 405 -172 733 -477 1048 -975 102
-161 177 -244 252 -279 65 -31 277 -74 820 -166 18 -4 26 -2 20 4 -12 12 -139
44 -497 126 -167 39 -296 74 -326 89 -64 33 -115 91 -209 242 -322 516 -682
840 -1080 973 -78 27 -136 39 -122 27z"/>
<path d="M3957 11184 c-4 -4 25 -24 63 -45 39 -21 87 -50 107 -64 l38 -25 -41
0 c-53 0 -104 -10 -104 -21 0 -12 146 -42 170 -34 12 4 26 18 32 31 10 20 8
29 -9 52 -38 51 -230 131 -256 106z"/>
<path d="M3061 11143 c15 -18 185 -103 206 -103 20 0 16 -18 -6 -25 -11 -3
-25 -12 -31 -20 -9 -11 2 -9 35 6 35 15 56 19 84 14 20 -4 32 -9 26 -11 -5 -1
-36 -10 -69 -19 -77 -22 -66 -30 15 -10 69 16 200 19 264 6 l40 -9 -35 -2
c-19 -2 -60 -2 -90 -1 -63 2 -198 -30 -247 -59 l-33 -19 -45 77 c-59 103 -68
114 -50 67 22 -55 70 -134 112 -181 28 -32 31 -33 14 -7 -12 17 -21 34 -21 37
0 16 144 59 235 70 43 5 35 1 -50 -27 -55 -18 -113 -41 -130 -51 -16 -9 -21
-14 -10 -10 177 61 297 90 452 109 59 7 90 14 68 14 -38 2 -37 3 28 20 37 10
72 22 77 27 5 5 -75 9 -208 9 -242 0 -316 12 -526 80 -125 41 -123 40 -105 18z"/>
<path d="M4630 11115 c0 -4 24 -41 53 -83 111 -160 348 -382 552 -514 122 -79
345 -188 485 -236 115 -40 321 -91 376 -93 79 -4 -130 -18 -348 -24 -225 -7
-280 -14 -230 -29 129 -41 521 -30 677 18 28 9 63 16 79 16 54 0 13 16 -99 39
-427 86 -815 265 -1145 527 -47 37 -156 139 -242 227 -87 87 -158 156 -158
152z"/>
<path d="M4780 10870 c58 -114 248 -350 362 -451 63 -56 207 -169 214 -169 11
0 -2 12 -78 72 -161 127 -327 308 -440 477 -55 82 -78 111 -58 71z"/>
<path d="M6626 10432 c-2 -4 -22 -55 -44 -113 -57 -153 -101 -215 -191 -275
-39 -25 -42 -29 -23 -32 35 -5 147 36 189 69 50 40 100 115 112 169 13 58 3
70 -27 34 -17 -21 -22 -23 -17 -9 9 27 19 165 12 165 -3 0 -8 -3 -11 -8z"/>
<path d="M5580 9735 c-35 -36 -71 -65 -80 -65 -8 0 -26 9 -40 20 -25 20 -70
27 -70 11 0 -5 7 -28 15 -51 8 -24 13 -45 11 -47 -2 -2 -21 3 -41 11 -50 21
-58 20 -52 -6 3 -13 9 -40 12 -60 l7 -37 -36 11 c-20 6 -39 9 -42 5 -3 -3 -1
-23 5 -44 l10 -38 -5 38 c-5 37 -5 38 23 31 15 -4 36 -11 45 -15 26 -14 26
-12 10 46 -8 30 -13 58 -10 61 4 3 19 -1 35 -9 15 -8 38 -18 50 -21 l22 -7
-19 57 c-27 76 -26 79 16 55 48 -28 67 -27 109 10 32 29 101 109 93 109 -2 0
-33 -29 -68 -65z"/>
<path d="M8552 8543 c-42 -20 -73 -64 -79 -112 l-5 -38 -122 -6 c-135 -7 -265
-32 -406 -78 -570 -186 -889 -575 -1054 -1289 -30 -131 -51 -259 -43 -267 6
-6 1773 10 2611 23 l399 6 -6 132 c-13 295 -148 613 -385 907 -157 195 -419
400 -618 485 l-61 26 1 63 c1 71 -15 103 -74 143 -40 27 -109 29 -158 5z"/>
</g>
</svg>
