<?xml version="1.0" standalone="no"?>
<svg version="1.0" xmlns="http://www.w3.org/2000/svg"
 width="30" height="30" viewBox="0 0 512.000000 512.000000"
 preserveAspectRatio="xMidYMid meet">

<g transform="translate(0.000000,512.000000) scale(0.100000,-0.100000)"
fill="#000000" stroke="none">
<path d="M1155 5103 c-153 -24 -336 -102 -460 -195 -99 -74 -419 -397 -494
-497 -191 -258 -241 -550 -165 -971 73 -411 313 -739 674 -919 52 -27 356
-164 675 -306 l580 -258 363 -259 c199 -143 378 -266 397 -274 49 -20 151 -18
200 5 22 10 65 44 95 75 30 31 59 56 65 56 6 0 86 -75 178 -168 l167 -167 0
-441 c0 -386 2 -447 17 -490 46 -135 143 -231 279 -278 56 -19 253 -22 336 -5
93 19 213 85 288 159 101 100 150 206 175 383 5 34 8 37 39 37 55 0 186 38
245 71 129 73 229 191 277 329 31 89 43 250 25 345 -33 176 -167 313 -340 345
-30 6 -233 10 -470 10 l-416 0 -167 167 -167 167 55 59 c79 85 98 127 98 212
0 52 -5 80 -21 110 -12 22 -132 195 -268 385 -136 190 -253 356 -260 370 -7
14 -115 255 -240 535 -309 694 -338 756 -395 838 -135 198 -284 329 -493 431
-195 96 -384 136 -662 141 -99 2 -193 1 -210 -2z m400 -179 c239 -32 392 -88
553 -201 124 -88 260 -242 327 -373 10 -19 145 -318 300 -665 l281 -630 257
-359 c142 -198 260 -371 264 -384 4 -15 -1 -38 -11 -57 -10 -18 -163 -178
-341 -355 l-323 -322 -44 4 c-38 3 -87 35 -408 265 l-365 261 -590 262 c-694
308 -755 338 -865 428 -276 223 -415 557 -414 992 0 175 17 256 79 385 51 108
114 182 346 410 196 193 222 214 304 257 195 101 360 122 650 82z m2070 -3214
l191 -190 465 0 464 0 50 -24 c58 -27 99 -65 129 -121 18 -34 21 -56 21 -155
0 -141 -19 -208 -85 -294 -85 -112 -194 -166 -338 -166 -136 0 -161 -19 -162
-121 0 -97 -16 -165 -55 -246 -63 -127 -177 -204 -335 -224 -182 -22 -297 26
-354 151 -20 43 -21 63 -24 516 l-3 470 -190 190 -189 189 107 107 c59 60 110
108 113 108 2 0 90 -85 195 -190z"/>
<path d="M595 4330 c-30 -12 -125 -118 -164 -184 -19 -31 -45 -89 -59 -129
-23 -65 -25 -88 -25 -232 -1 -305 60 -513 204 -705 90 -119 218 -220 348 -275
63 -26 82 -25 119 8 15 14 22 32 22 58 0 43 -4 47 -123 114 -231 129 -348 314
-392 616 -37 260 -6 405 118 546 27 31 53 66 57 79 13 33 -7 82 -41 99 -31 17
-36 17 -64 5z"/>
</g>
</svg>
