<?xml version="1.0" standalone="no"?>
<!DOCTYPE svg PUBLIC "-//W3C//DTD SVG 20010904//EN"
 "http://www.w3.org/TR/2001/REC-SVG-20010904/DTD/svg10.dtd">
<svg version="1.0" xmlns="http://www.w3.org/2000/svg"
 width="30" height="30" viewBox="0 0 512.000000 512.000000"
 preserveAspectRatio="xMidYMid meet">

<g transform="translate(0.000000,512.000000) scale(0.100000,-0.100000)"
fill="#000000" stroke="none">
<path d="M1309 5091 l-29 -29 0 -181 0 -181 -85 -340 -85 -340 0 -1717 0
-1718 91 -272 c73 -219 96 -277 116 -293 25 -20 39 -20 1243 -20 1204 0 1218
0 1243 20 20 16 43 74 116 293 l91 272 0 1718 0 1717 -85 340 -85 340 0 181 0
181 -29 29 -29 29 -1222 0 -1222 0 -29 -29z m2361 -226 l0 -85 -1110 0 -1110
0 0 85 0 85 1110 0 1110 0 0 -85z m79 -500 c33 -135 61 -249 61 -255 0 -7
-412 -10 -1250 -10 -838 0 -1250 3 -1250 10 0 6 28 120 61 255 l61 245 1128 0
1128 0 61 -245z m91 -1138 l0 -704 -177 -85 c-689 -333 -1426 -497 -2173 -486
l-205 3 -3 988 -2 987 1280 0 1280 0 0 -703z m-32 -1089 c-18 -16 -85 -71
-148 -122 -582 -473 -1412 -775 -2231 -812 l-149 -7 0 291 0 292 253 0 c473 0
846 46 1283 160 315 82 701 226 969 362 l50 26 3 -80 c3 -80 3 -81 -30 -110z
m32 -833 l0 -625 -1280 0 -1280 0 0 175 0 175 88 0 c109 0 364 24 532 50 518
79 1027 258 1451 510 127 75 323 210 412 284 38 31 71 56 73 56 2 0 4 -281 4
-625z m-40 -803 c0 -4 -24 -79 -53 -167 l-54 -160 -1133 0 -1133 0 -54 160
c-29 88 -53 163 -53 167 0 5 558 8 1240 8 682 0 1240 -3 1240 -8z"/>
<path d="M2560 3665 l0 -85 85 0 85 0 0 85 0 85 -85 0 -85 0 0 -85z"/>
<path d="M2900 3665 l0 -85 300 0 300 0 0 -85 0 -85 85 0 85 0 0 135 c0 141
-10 185 -45 199 -9 3 -176 6 -371 6 l-354 0 0 -85z"/>
<path d="M1489 3227 c-36 -28 -39 -51 -39 -332 l0 -277 29 -29 29 -29 141 0
141 0 0 85 0 85 -85 0 -85 0 0 170 0 170 85 0 85 0 0 85 0 85 -142 0 c-97 -1
-148 -5 -159 -13z"/>
<path d="M1989 3214 l-24 -26 0 -290 0 -290 28 -24 c28 -24 32 -24 218 -24
198 0 238 7 253 45 3 9 6 145 6 301 l0 285 -25 24 c-24 25 -25 25 -228 25
l-204 0 -24 -26z m311 -314 l0 -170 -85 0 -85 0 0 170 0 170 85 0 85 0 0 -170z"/>
<path d="M2650 2931 c0 -170 3 -317 6 -326 14 -35 58 -45 199 -45 l135 0 0 85
0 85 -85 0 -85 0 0 255 0 255 -85 0 -85 0 0 -309z"/>
<path d="M3185 3215 l-25 -24 0 -316 0 -315 85 0 85 0 0 85 0 85 85 0 85 0 0
-85 0 -85 85 0 85 0 0 306 c0 311 -2 333 -39 361 -11 9 -75 12 -219 13 -202 0
-203 0 -227 -25z m315 -230 l0 -85 -85 0 -85 0 0 85 0 85 85 0 85 0 0 -85z"/>
</g>
</svg>
