<?xml version="1.0" standalone="no"?>

<svg version="1.0" xmlns="http://www.w3.org/2000/svg"
 width="30" height="30" viewBox="0 0 512.000000 512.000000"
 preserveAspectRatio="xMidYMid meet">

<g transform="translate(0.000000,512.000000) scale(0.100000,-0.100000)"
fill="#000000" stroke="none">
<path d="M3956 4669 l-26 -20 0 -830 0 -829 -130 0 c-160 0 -194 -11 -210 -67
-8 -27 -10 -380 -8 -1240 l3 -1201 24 -26 24 -26 713 0 c392 0 720 3 729 6 46
18 45 -15 45 1278 l0 1215 -24 28 c-24 28 -24 28 -170 31 l-146 4 0 815 c0
600 -3 820 -12 836 -24 46 -24 46 -414 47 -361 0 -372 -1 -398 -21z m654 -319
l0 -170 -255 0 -255 0 0 170 0 170 255 0 255 0 0 -170z m0 -850 l0 -510 -255
0 -255 0 0 510 0 510 255 0 255 0 0 -510z m340 -940 l0 -260 -85 0 -85 0 0
135 c0 164 -9 188 -73 206 -23 6 -81 9 -131 7 -82 -4 -91 -6 -112 -32 -30 -34
-31 -77 -1 -111 18 -22 34 -27 85 -32 l63 -6 -3 -81 -3 -81 -425 0 -425 0 -3
245 c-1 134 0 250 3 257 3 10 128 13 600 13 l595 0 0 -260z m0 -855 l0 -425
-600 0 -600 0 0 425 0 425 600 0 600 0 0 -425z m-340 -740 c0 -142 1 -147 25
-170 33 -34 83 -34 116 1 23 24 24 33 27 170 l3 144 85 0 84 0 0 -255 0 -255
-600 0 -600 0 0 248 c0 137 3 252 7 255 3 4 197 7 430 7 l423 0 0 -145z"/>
<path d="M3995 2643 c-65 -17 -87 -98 -39 -144 24 -22 33 -24 133 -24 121 0
154 11 170 56 13 36 -1 79 -32 99 -22 14 -192 24 -232 13z"/>
<path d="M4282 2040 c-102 -21 -193 -96 -240 -199 -38 -80 -37 -192 0 -273 31
-68 95 -133 164 -168 71 -36 187 -40 269 -9 81 30 163 112 193 192 42 110 22
244 -49 334 -77 96 -217 148 -337 123z m168 -199 c52 -40 72 -85 67 -149 -6
-87 -61 -142 -150 -150 -127 -10 -218 105 -173 222 41 108 168 146 256 77z"/>
<path d="M1900 2813 c-340 -23 -649 -175 -959 -469 -273 -260 -515 -603 -729
-1035 -97 -195 -97 -195 -136 -205 -24 -5 -47 -20 -59 -36 l-20 -27 46 -283
c44 -261 49 -285 73 -306 l25 -22 1569 0 1568 0 24 28 c20 24 29 67 67 297 27
167 42 281 37 298 -4 18 -18 33 -40 44 -38 18 -46 35 -46 108 0 28 -5 89 -11
138 l-11 87 41 46 c53 61 75 128 69 213 -5 68 -25 119 -61 159 -19 21 -20 25
-7 45 8 12 27 46 42 76 33 64 38 149 12 224 -22 64 -91 139 -156 168 -71 31
-174 32 -239 3 l-46 -21 -49 59 c-108 132 -290 263 -454 329 -103 41 -233 69
-365 79 -71 5 -132 9 -135 8 -3 -1 -25 -3 -50 -5z m206 -177 c248 -15 526
-162 685 -364 49 -62 50 -63 38 -102 l-12 -40 -158 0 -157 0 -30 54 c-70 122
-220 234 -367 271 -68 17 -188 20 -266 5 -88 -17 -207 -80 -281 -149 -84 -78
-123 -140 -160 -248 -70 -208 -16 -444 137 -599 106 -108 242 -170 395 -180
206 -14 415 93 532 272 l41 64 158 0 158 0 10 -38 c31 -113 132 -198 251 -211
l55 -6 7 -65 c3 -36 8 -93 10 -128 l4 -62 -1428 0 -1428 0 41 82 c227 452 499
832 769 1074 202 181 419 304 619 350 70 17 219 32 261 28 14 -2 66 -5 116 -8z
m-10 -356 c154 -53 259 -179 286 -343 45 -273 -210 -527 -482 -479 -165 29
-286 132 -341 287 -31 91 -24 217 18 307 73 156 214 247 384 248 51 0 95 -7
135 -20z m1069 -74 c61 -26 94 -112 64 -169 -7 -12 -25 -37 -40 -55 -26 -30
-29 -40 -29 -107 0 -72 1 -77 36 -115 83 -92 36 -220 -81 -220 -78 0 -125 51
-125 135 0 49 -13 82 -39 102 -11 9 -72 12 -206 13 l-190 0 0 84 0 85 193 3
194 3 24 28 c19 22 24 39 24 84 0 64 25 107 74 129 40 17 59 17 101 0z m39
-1403 c-13 -76 -26 -153 -29 -170 l-6 -33 -1464 0 c-806 0 -1465 3 -1465 8 0
4 -11 72 -25 152 -14 80 -25 153 -25 163 0 16 79 17 1518 17 l1519 0 -23 -137z"/>
<path d="M850 1705 l0 -85 85 0 85 0 0 85 0 85 -85 0 -85 0 0 -85z"/>
<path d="M680 1365 l0 -85 85 0 85 0 0 85 0 85 -85 0 -85 0 0 -85z"/>
</g>
</svg>
